#define dddsplash_width 410
#define dddsplash_height 140
static unsigned char dddsplash_bits[] = {
 0x08,0x21,0x22,0x20,0x40,0x40,0x84,0x20,0x21,0x10,0x12,0x11,0x11,0x40,0x20,
 0x11,0x04,0x84,0x04,0x42,0x48,0x82,0x00,0x04,0x08,0x02,0x90,0x08,0x20,0x80,
 0x04,0x90,0x20,0x81,0x00,0x84,0x20,0x84,0x40,0x02,0x44,0x40,0x84,0x08,0x12,
 0x82,0x10,0x09,0x22,0x22,0x04,0x03,0x65,0xad,0xaa,0xaf,0xbd,0x5e,0xb5,0xae,
 0x5a,0xaf,0x55,0x55,0x55,0xbf,0x5e,0xad,0xeb,0xb5,0xea,0xba,0x56,0xb9,0xee,
 0xeb,0xeb,0xf5,0xae,0xea,0xae,0x7b,0xf5,0xaf,0xae,0x7a,0xfd,0xb5,0xae,0xb5,
 0x5e,0xf5,0xb5,0x5e,0x75,0xd5,0xca,0xba,0x56,0xd5,0xd5,0x5a,0x6b,0x03,0x02,
 0x00,0x00,0x00,0x00,0x00,0x00,0x00,0x00,0x00,0x00,0x00,0x00,0x00,0x00,0x00,
 0x00,0x00,0x00,0x00,0x00,0x00,0x00,0x00,0x00,0x00,0x00,0x00,0x00,0x00,0x00,
 0x00,0x00,0x00,0x00,0x00,0x00,0x00,0x00,0x00,0x00,0x00,0x00,0x00,0x00,0x00,
 0x00,0x00,0x00,0x00,0x00,0x03,0x00,0x00,0x00,0x00,0x00,0x00,0x00,0x00,0x00,
 0x00,0x00,0x00,0x00,0x00,0x00,0x00,0x00,0x00,0x00,0x00,0x00,0x00,0x00,0x00,
 0x00,0x00,0x00,0x00,0x00,0x00,0x00,0x00,0x00,0x00,0x00,0x00,0x00,0x00,0x00,
 0x00,0x00,0x00,0x00,0x00,0x00,0x00,0x00,0x00,0x00,0x00,0x00,0x03,0x02,0x00,
 0x00,0x00,0x00,0x00,0x00,0x00,0x00,0x00,0xfa,0xff,0x2f,0x00,0x00,0x00,0x00,
 0x00,0x00,0x00,0x00,0x00,0x00,0x00,0x00,0x00,0x00,0x00,0x00,0x00,0x00,0x00,
 0x00,0x00,0x00,0x00,0x00,0x00,0x00,0x00,0x00,0x00,0x00,0x00,0x00,0x00,0x00,
 0x00,0x00,0x00,0x00,0x03,0x01,0x00,0x00,0x00,0x00,0x00,0x00,0x00,0x00,0x80,
 0xff,0xff,0xff,0x00,0x00,0x00,0x00,0x00,0x00,0x00,0x00,0x00,0x00,0x00,0x00,
 0x00,0x00,0x00,0x00,0x00,0x00,0x00,0x00,0x00,0x00,0x00,0x00,0x00,0x00,0x00,
 0x00,0x00,0x00,0x00,0x00,0x00,0x00,0x00,0x00,0x00,0x00,0x03,0x02,0x00,0x00,
 0x00,0x00,0x00,0x00,0x00,0x00,0xf8,0xff,0xff,0xff,0x0f,0x00,0x00,0x00,0x00,
 0x00,0x00,0x00,0x00,0x00,0x00,0x00,0x00,0x00,0x00,0x00,0x00,0x00,0x00,0x00,
 0x00,0x00,0x00,0x00,0x00,0x00,0x00,0x00,0x00,0x00,0x00,0x00,0x00,0x00,0x00,
 0x00,0x00,0x00,0x03,0x00,0x00,0x00,0x00,0x00,0x00,0x00,0x00,0x00,0xfe,0xbb,
 0xdb,0xf6,0x7f,0x00,0x00,0x00,0x00,0x00,0x00,0x00,0x00,0x00,0x00,0x00,0x00,
 0x00,0x00,0x00,0x00,0x00,0x00,0x00,0x00,0x00,0x00,0x00,0x00,0x00,0x00,0x00,
 0x00,0x00,0x00,0x00,0x00,0x00,0x00,0x00,0x00,0x00,0x03,0x02,0x00,0x00,0x00,
 0x00,0x00,0x00,0x00,0xc0,0xff,0xef,0xfe,0xbf,0xff,0x11,0x00,0x00,0x00,0x00,
 0x00,0x00,0x00,0x00,0x00,0x00,0x00,0x00,0x00,0x00,0x00,0x00,0x00,0x00,0x00,
 0x00,0x00,0x00,0x00,0x00,0x00,0x00,0x00,0x00,0x00,0x00,0x00,0x00,0x00,0x00,
 0x00,0x00,0x03,0x01,0x00,0x00,0x00,0x00,0x00,0x00,0x00,0xf0,0xdf,0xfd,0xbf,
 0x7d,0xeb,0x07,0x02,0x00,0x00,0x00,0x00,0x00,0x00,0x00,0x00,0x00,0x00,0x00,
 0x00,0x00,0x00,0x00,0x00,0x00,0x00,0x00,0x00,0x00,0x00,0x00,0x00,0x00,0x00,
 0x00,0x00,0x00,0x00,0x00,0x00,0x00,0x00,0x00,0x03,0x02,0x00,0x00,0x00,0x00,
 0x00,0x00,0x00,0xfc,0x7f,0xbf,0xeb,0xf7,0xbf,0x9f,0x00,0x00,0x00,0x00,0x00,
 0x00,0x00,0x00,0x00,0x00,0x00,0x00,0x00,0x00,0x00,0x00,0x00,0x00,0x00,0x00,
 0x00,0x00,0x00,0x00,0x00,0x00,0x00,0x00,0x00,0x00,0x00,0x00,0x00,0x00,0x00,
 0x00,0x03,0x00,0x00,0x00,0x00,0x00,0x00,0x00,0x00,0xff,0xea,0x7f,0x7f,0xbf,
 0xed,0x7f,0x28,0x00,0x00,0x00,0x00,0x00,0x00,0x00,0x00,0x00,0x00,0x00,0x00,
 0x00,0x00,0x00,0x00,0x00,0x00,0x00,0x00,0x00,0x00,0x00,0x00,0x00,0x00,0x00,
 0x00,0x00,0x00,0x00,0x00,0x00,0x00,0x00,0x03,0x02,0x00,0x00,0x00,0x08,0x08,
 0x00,0xc0,0xef,0x77,0x61,0xe7,0xef,0x77,0xfb,0x00,0x01,0x00,0x00,0x00,0x00,
 0x00,0x00,0x00,0x00,0x00,0x00,0x00,0x00,0x00,0x00,0x00,0x00,0x00,0x00,0x00,
 0x00,0x00,0x00,0x00,0x00,0x00,0x00,0x00,0x00,0x00,0x00,0x00,0x00,0x00,0x00,
 0x03,0x01,0x80,0x00,0x10,0x0c,0x60,0x00,0xf0,0x7f,0xbf,0x61,0xf5,0xfc,0xfe,
 0xb6,0x13,0x00,0x00,0x00,0x00,0x00,0x00,0x00,0x00,0x00,0x00,0x00,0x00,0x00,
 0x00,0x00,0x00,0x00,0x00,0x00,0x00,0x00,0x00,0x00,0x00,0x00,0x00,0x00,0x00,
 0x00,0x00,0x00,0x00,0x00,0x00,0x00,0x03,0x02,0xfc,0x5f,0xbf,0xd7,0x6b,0xee,
 0xff,0x5a,0xb3,0x69,0xd5,0xf5,0xef,0xdf,0x46,0x02,0x00,0x00,0x00,0x00,0x00,
 0x00,0x00,0x00,0x00,0x00,0x00,0x00,0x00,0x00,0x00,0x00,0x00,0x00,0x00,0x00,
 0x00,0x00,0x00,0x00,0x00,0x00,0x00,0x00,0x00,0x00,0x00,0x00,0x00,0x00,0x03,
 0x00,0x4c,0xca,0x88,0xf5,0x2e,0xbb,0xbf,0x3f,0xb3,0xa4,0x5d,0x95,0xbb,0xb5,
 0x17,0x08,0x00,0x00,0x00,0x00,0x00,0x00,0x00,0x00,0x00,0x00,0x00,0x00,0x00,
 0x00,0x00,0x00,0x00,0x00,0x00,0x00,0x00,0x00,0x00,0x00,0x00,0x00,0x00,0x00,
 0x00,0x00,0x00,0x00,0x00,0x00,0x03,0x02,0x50,0xeb,0x8a,0xb4,0x3a,0xfb,0xef,
 0xc7,0xf1,0xb0,0x6d,0xdb,0x7e,0x7f,0x2d,0x41,0x00,0x00,0x00,0x00,0x00,0x00,
 0x00,0x00,0x00,0x00,0x00,0x00,0x00,0x00,0x00,0x00,0x00,0x00,0x00,0x00,0x00,
 0x00,0x00,0x00,0x00,0x00,0x00,0x00,0x00,0x00,0x00,0x00,0x00,0x00,0x03,0x01,
 0x5c,0xbb,0x9b,0xae,0x36,0xed,0xfb,0x2a,0xd5,0xbf,0x6d,0xea,0xfa,0xd5,0x72,
 0x10,0x00,0x00,0x00,0x00,0x00,0x00,0x00,0x00,0x00,0x00,0x00,0x00,0x00,0x00,
 0x00,0x00,0x00,0x00,0x00,0x00,0x00,0x00,0x00,0x00,0x00,0x00,0x00,0x00,0x00,
 0x00,0x00,0x00,0x00,0x00,0x03,0x02,0x00,0x00,0x00,0x00,0x00,0x60,0x7d,0x53,
 0x89,0x90,0xac,0x95,0xe7,0x57,0x8b,0x81,0x00,0x00,0x00,0x00,0x00,0x00,0x00,
 0x00,0x00,0x00,0x00,0x00,0x00,0x00,0x00,0x00,0x00,0x00,0x00,0x00,0x00,0x00,
 0x00,0x00,0x00,0x00,0x00,0x00,0x00,0x00,0x00,0x00,0x00,0x00,0x03,0x00,0x08,
 0x00,0x00,0x00,0x00,0xf8,0xfe,0x94,0x54,0x4d,0x52,0xb5,0xb5,0xab,0x74,0x25,
 0x02,0x00,0x00,0x00,0x00,0x00,0x00,0x00,0x00,0x00,0x00,0x00,0x00,0x00,0x00,
 0x00,0x00,0x00,0x00,0x00,0x00,0x00,0x00,0x00,0x00,0x00,0x00,0x00,0x00,0x00,
 0x00,0x00,0x00,0x00,0x03,0x02,0x08,0x02,0x00,0x00,0x00,0x5c,0xaf,0xa3,0xaa,
 0x62,0x55,0xca,0x5b,0xaf,0x4d,0x8b,0x08,0x00,0x00,0x00,0x00,0x00,0x00,0x00,
 0x00,0x00,0x00,0x00,0x00,0x00,0x00,0x00,0x00,0x00,0x00,0x00,0x00,0x00,0x00,
 0x00,0x00,0x00,0x00,0x00,0x00,0x00,0x00,0x00,0x00,0x00,0x03,0x01,0xfc,0x77,
 0x7f,0x00,0x00,0xce,0xff,0x4f,0x01,0x68,0x01,0xe0,0x6c,0x5f,0x55,0x2c,0x00,
 0x00,0x00,0x00,0x00,0x00,0x00,0x00,0x00,0x00,0x00,0x00,0x00,0x00,0x00,0x00,
 0x00,0x00,0x00,0x00,0x00,0x00,0x00,0x00,0x00,0x00,0x00,0x00,0x00,0x00,0x00,
 0x00,0x00,0x00,0x03,0x02,0xd4,0xd1,0x09,0x00,0x00,0xeb,0x47,0x9f,0xbc,0x77,
 0xdb,0x7d,0x51,0xbb,0xaa,0x41,0x02,0x00,0x00,0x00,0x00,0x00,0x00,0x00,0x00,
 0x00,0x00,0x00,0x00,0x00,0x00,0x00,0x00,0x00,0x00,0x00,0x00,0x00,0x00,0x00,
 0x00,0x00,0x00,0x00,0x00,0x00,0x00,0x00,0x00,0x00,0x03,0x00,0x54,0x51,0x2d,
 0x00,0x80,0xf3,0x3b,0x78,0xdd,0x36,0xed,0x3e,0x42,0xff,0x54,0x2c,0x24,0x00,
 0x00,0x00,0x4a,0x55,0x55,0x55,0xf5,0xff,0xff,0xff,0xff,0xff,0xff,0xff,0xff,
 0xff,0xff,0xff,0xff,0xff,0xff,0xff,0xff,0xff,0xff,0xff,0xff,0xff,0xff,0xff,
 0x7f,0x00,0x03,0x02,0x54,0xf3,0x25,0x00,0xc0,0xfc,0x4a,0x33,0xed,0xb7,0x6d,
 0xb6,0x3e,0xe9,0x92,0x56,0x11,0x00,0x00,0x00,0x00,0x00,0x00,0x00,0x00,0x00,
 0x00,0x00,0x00,0x00,0x00,0x00,0x00,0x00,0x00,0x00,0x00,0x00,0x00,0x00,0x00,
 0x00,0x00,0x00,0x00,0x00,0x00,0x00,0x40,0x01,0x03,0x01,0x00,0x00,0x20,0x00,
 0xe0,0xfe,0xad,0xea,0xe4,0x92,0x6c,0x36,0xbe,0xcd,0x49,0xad,0x82,0x00,0x00,
 0x00,0x00,0x00,0x00,0x00,0x00,0x00,0x00,0x00,0x00,0x00,0x00,0x00,0x00,0x00,
 0x00,0x00,0x00,0x00,0x00,0x00,0x00,0x00,0x00,0x00,0x00,0x00,0x00,0x00,0x40,
 0x05,0x03,0x02,0x00,0x00,0x00,0x00,0x70,0x7e,0x53,0xca,0x66,0x9b,0x2f,0x33,
 0x80,0xe1,0xab,0x41,0x24,0x00,0x00,0x00,0x00,0x00,0x00,0x00,0x00,0x00,0x00,
 0x00,0x00,0x00,0x00,0x00,0x00,0x00,0x00,0x00,0x00,0x00,0x00,0x00,0x00,0x00,
 0x00,0x00,0x00,0x00,0x00,0x00,0xc0,0x07,0x03,0x00,0x00,0x00,0x00,0x00,0x30,
 0x7f,0xe5,0xa6,0xc6,0x31,0x37,0x9b,0xa0,0x7f,0x67,0xc2,0x0a,0x01,0x00,0x00,
 0x00,0x00,0x00,0x00,0x00,0x00,0x00,0x00,0x00,0x00,0x00,0x00,0x00,0x00,0x00,
 0x00,0x00,0x00,0x00,0x00,0x00,0x00,0x00,0x00,0x00,0x00,0x00,0x00,0xc0,0x17,
 0x03,0x02,0x00,0x00,0x00,0x00,0x98,0xdf,0x1a,0x99,0x09,0x00,0x00,0x18,0x02,
 0x80,0x97,0x88,0x11,0x04,0x00,0x00,0x00,0x00,0x00,0x00,0x00,0x00,0x00,0x00,
 0x00,0x00,0x00,0x00,0x00,0x00,0x00,0x00,0x00,0x00,0x00,0x00,0x00,0x00,0x00,
 0x00,0x00,0x00,0x00,0x00,0xc0,0x03,0x03,0x01,0x00,0x00,0x00,0x00,0xcc,0xbf,
 0x6a,0x67,0x13,0x40,0x00,0x18,0x00,0x20,0x1e,0x22,0x8d,0x00,0x00,0x00,0x00,
 0x00,0x00,0x00,0x00,0x00,0x00,0x00,0xff,0xff,0xff,0xff,0x03,0x00,0xc0,0xff,
 0xff,0xff,0xff,0x00,0x00,0xe0,0xff,0xff,0xff,0x3f,0x00,0x00,0xc0,0x0f,0x03,
 0x02,0x00,0x00,0x00,0x00,0xee,0x5f,0x55,0x19,0x46,0x3d,0xf6,0xfd,0xfe,0xe7,
 0x8e,0x10,0x13,0x09,0x00,0x00,0x00,0x00,0x00,0x00,0x00,0x00,0x00,0x00,0xff,
 0xff,0xff,0xff,0x1f,0x00,0xc0,0xff,0xff,0xff,0xff,0x0f,0x00,0xe0,0xff,0xff,
 0xff,0xff,0x03,0x00,0xc0,0x07,0x03,0x00,0x00,0x00,0x00,0x00,0xe6,0xd7,0x0a,
 0x01,0x0e,0x36,0x12,0xdc,0x1a,0x66,0x1c,0x0a,0x6d,0x02,0x00,0x00,0x00,0x00,
 0x00,0x00,0x00,0x00,0x00,0x00,0xdf,0xdd,0xee,0xfe,0xfe,0x00,0xc0,0xff,0xff,
 0xff,0xff,0x3f,0x00,0xe0,0xff,0xff,0xff,0xff,0x1f,0x00,0xc0,0x0f,0x03,0x02,
 0x00,0x00,0x00,0x00,0xf7,0x57,0xf5,0xde,0x7d,0x32,0x1b,0xdc,0x1b,0x34,0x3d,
 0x20,0x26,0x08,0x00,0x00,0x00,0x00,0x00,0x00,0x00,0x00,0x00,0x00,0x7b,0xf7,
 0xbb,0xeb,0xfb,0x01,0xc0,0xaa,0xaa,0xaa,0xaa,0xfd,0x00,0x60,0x55,0x55,0x55,
 0xf5,0x3f,0x00,0xc0,0x07,0x03,0x01,0x48,0x00,0x00,0x00,0xf3,0x5f,0xdd,0x6e,
 0x5f,0x33,0xf9,0x7c,0xfb,0x1c,0x78,0x0a,0x9e,0x00,0x00,0x00,0x00,0x00,0x00,
 0x00,0x00,0x00,0x00,0x00,0xdf,0xff,0xfe,0xbf,0xde,0x07,0xc0,0xff,0xff,0xff,
 0xff,0xef,0x01,0xe0,0xff,0xff,0xff,0x5f,0x7b,0x00,0xc0,0x0b,0x03,0x02,0x68,
 0x06,0x00,0x80,0xf9,0xdb,0xf2,0xf6,0x7b,0xb1,0x19,0x7e,0x0b,0x0c,0x70,0x20,
 0x64,0x29,0x00,0x00,0x00,0x00,0x00,0x00,0x00,0x00,0x00,0x00,0xfb,0xae,0xb7,
 0xfb,0xf7,0x0f,0xc0,0xbb,0xbb,0x77,0xb7,0xfb,0x03,0xf0,0xee,0xee,0xee,0xfe,
 0xef,0x00,0xc0,0x07,0x03,0x00,0x7c,0xfa,0xfd,0xea,0xfd,0x5f,0xdd,0x32,0xfd,
 0xa1,0x08,0x5e,0x4d,0xed,0xe3,0x88,0xbc,0x82,0x00,0x00,0x00,0x00,0x00,0x00,
 0x00,0x00,0x00,0x00,0xbf,0xfb,0xfd,0xde,0x7d,0x1d,0xc0,0xee,0xee,0xdd,0xfd,
 0xbe,0x07,0xa0,0xbb,0xbb,0xbb,0xb7,0xfd,0x01,0xc0,0x0f,0x03,0x02,0x14,0x4b,
 0xa7,0xeb,0xfc,0x66,0x6d,0xb3,0x35,0xe5,0x8c,0xff,0x0d,0xfc,0xf7,0x20,0x89,
 0x08,0x04,0x00,0x00,0x00,0x00,0x00,0x00,0x00,0x00,0x00,0xed,0xdf,0xf7,0xf7,
 0xef,0x1f,0xc0,0xff,0xbf,0xff,0xf7,0xf7,0x0e,0xe0,0xff,0xff,0xff,0xfd,0xf7,
 0x03,0xc0,0x07,0x03,0x01,0x14,0xe9,0xb9,0xed,0xfc,0xd7,0x7e,0xe3,0xfc,0x61,
 0xfc,0xbb,0x2d,0xf5,0xff,0x49,0x78,0x82,0x00,0x00,0x00,0x00,0x00,0x00,0x00,
 0x00,0x00,0x00,0xff,0xf5,0x5d,0xbd,0xba,0x3b,0xc0,0xdb,0xf6,0xd6,0x5e,0xdd,
 0x1f,0xe0,0x6d,0xdb,0xb6,0xbf,0xbd,0x07,0xc0,0x0b,0x03,0x02,0x14,0xcb,0x6e,
 0x6f,0xfe,0x57,0x45,0x00,0x6e,0x03,0xf0,0x1d,0x80,0xb0,0x8f,0x91,0xda,0x12,
 0x00,0x00,0x00,0x00,0x00,0x00,0x00,0x00,0x00,0x00,0xb7,0xdf,0xff,0xff,0xff,
 0x7e,0xc0,0xfe,0xdf,0xff,0xff,0x7f,0x1f,0xe0,0xff,0xff,0xff,0xf6,0xee,0x0f,
 0xc0,0x07,0x03,0x00,0x00,0x02,0x00,0x60,0x7e,0x75,0x95,0x10,0xff,0x08,0xff,
 0x7f,0x00,0x80,0xcf,0x45,0x30,0x89,0x00,0x00,0x00,0x00,0x00,0x00,0x00,0x00,
 0x00,0x00,0x7d,0x7b,0xdb,0x6b,0xdf,0xf7,0xc0,0x6f,0xfb,0x76,0xd5,0xed,0x3b,
 0xb0,0xb6,0x6d,0xdb,0xbf,0xff,0x0e,0xc0,0x17,0x03,0x02,0x00,0x00,0x00,0x30,
 0xfe,0x6d,0x57,0x42,0xf1,0xe1,0xff,0xfe,0x49,0xc2,0x87,0x93,0xf3,0x4a,0x04,
 0x00,0x00,0x00,0x00,0x00,0x00,0x00,0x00,0x00,0xf7,0xef,0x7d,0xff,0x75,0xdf,
 0xc0,0xbd,0xef,0xdf,0x7f,0xbf,0x6f,0xe0,0xdf,0xf7,0x7d,0xed,0xb5,0x1f,0xc0,
 0x07,0x03,0x01,0x00,0x00,0x00,0x30,0xff,0x5a,0x09,0x88,0xf8,0xff,0xff,0xff,
 0x97,0xe8,0x47,0x23,0x54,0x05,0x00,0x00,0x00,0x00,0x00,0x00,0x00,0x00,0x00,
 0x00,0xef,0xbe,0xef,0x6d,0xff,0xfd,0xc1,0xef,0xfb,0xf6,0xef,0x77,0x7b,0xe0,
 0xfb,0x7e,0xdf,0xff,0xff,0x1b,0xc0,0x0f,0x03,0x02,0x00,0x00,0x00,0x30,0xbf,
 0xd5,0x2a,0x21,0xfc,0xff,0xff,0xfe,0x07,0xc2,0xa7,0xeb,0xb4,0x55,0x01,0x00,
 0x00,0x00,0x00,0x00,0x00,0x00,0x00,0x00,0xbf,0xfb,0xfe,0xff,0xed,0xf7,0xc1,
 0x7e,0x6f,0xff,0x7b,0xdf,0x7f,0x60,0xef,0xdb,0xff,0xb5,0x6e,0x3f,0xc0,0x07,
 0x03,0x00,0x00,0x00,0x00,0xb8,0xff,0xba,0x46,0x04,0xbe,0xff,0x7f,0xff,0xaf,
 0xd0,0x01,0x17,0xe1,0x2a,0x00,0x00,0x00,0x00,0x00,0x00,0x00,0x00,0x00,0x00,
 0xeb,0xde,0x07,0x7c,0xbf,0xbd,0xc1,0xdb,0xfb,0x03,0xfe,0xf5,0xed,0xe0,0xfd,
 0xfe,0x80,0xff,0xfb,0x37,0xc0,0x0b,0x03,0x02,0x00,0x00,0x00,0x98,0xbf,0x67,
 0x11,0x02,0xfe,0xff,0xff,0xfe,0x1f,0xc9,0x31,0x25,0xa6,0x82,0x06,0x00,0x00,
 0x00,0x00,0x00,0x00,0x00,0x00,0x00,0xff,0xfb,0x06,0xb0,0xf7,0xf7,0xc3,0x7f,
 0xef,0x01,0xec,0xbf,0xff,0xe0,0xd7,0xf7,0x00,0xb7,0xaf,0x3d,0xc0,0x07,0x03,
 0x01,0x00,0x00,0x00,0x98,0xbf,0xba,0x95,0x04,0x7e,0xff,0xff,0xff,0x5f,0xc2,
 0x84,0x4e,0x69,0x37,0x00,0x00,0x00,0x00,0x00,0x00,0x00,0x00,0x00,0x00,0x77,
 0xbf,0x07,0xe0,0x7d,0x7d,0xc3,0xee,0xbd,0x01,0xb8,0xed,0xab,0xe1,0xfe,0xed,
 0x00,0xfe,0xfd,0x7f,0xc0,0x17,0x03,0x02,0x00,0x00,0x00,0xc8,0x7f,0x4b,0x42,
 0x00,0xfe,0xff,0xff,0xff,0xbf,0xc4,0x20,0x25,0xf2,0x04,0x04,0x00,0x00,0x00,
 0x00,0x00,0x00,0x00,0x00,0x00,0xdf,0xed,0x05,0xe0,0xd7,0xd7,0xc3,0xbb,0xf7,
 0x01,0xf0,0xbf,0xff,0xe1,0x5b,0xff,0x00,0x6c,0x6f,0x7b,0xc0,0x07,0x03,0x00,
 0x00,0x00,0x00,0xdc,0xdf,0x7d,0x05,0x80,0xff,0xff,0xff,0xff,0xbf,0xca,0xa8,
 0x96,0xaa,0xaf,0x00,0x00,0x00,0x00,0x00,0x00,0x00,0x00,0x00,0x00,0xf5,0xff,
 0x07,0xc0,0xfd,0xff,0xc7,0xff,0xbf,0x01,0xf0,0xf6,0xed,0xe1,0xfe,0xdf,0x00,
 0xf8,0xfb,0x6f,0xc0,0x0b,0x03,0x02,0x00,0x00,0x00,0xcc,0xbf,0x2a,0x29,0xc8,
 0xff,0xff,0xff,0xff,0xbf,0xc2,0x40,0x4a,0x65,0xf6,0x01,0x00,0x00,0x00,0x00,
 0x00,0x00,0x00,0x00,0x00,0xbf,0xb6,0x07,0x80,0xdf,0x76,0xc7,0xd6,0xf6,0x01,
 0xa0,0xdf,0xbf,0xe1,0xdb,0xfa,0x00,0xb8,0xaf,0xfd,0xc0,0x0f,0x03,0x01,0xdc,
 0xcf,0xec,0xcd,0xdf,0xd6,0x44,0xe1,0xff,0xff,0xff,0xff,0x7f,0xe5,0xa8,0xac,
 0xdc,0xdf,0x06,0x00,0x00,0x00,0x00,0x00,0x00,0x00,0x00,0x00,0xef,0xef,0x06,
 0x80,0xf7,0xdf,0xc7,0xff,0xff,0x01,0xe0,0x7b,0xf5,0xe1,0xf6,0xff,0x00,0xf8,
 0xfd,0xf7,0xc0,0x07,0x03,0x02,0x74,0xe2,0x7c,0xcf,0x7f,0xfb,0x11,0xf0,0xff,
 0xff,0xff,0xdf,0xbf,0xea,0x08,0xaa,0xd2,0x0b,0x02,0x00,0x00,0x00,0x00,0x00,
 0x00,0x00,0x00,0x00,0xbf,0xfd,0x07,0x80,0x5d,0x7d,0xc7,0x6d,0xab,0x01,0xe0,
 0xee,0xdf,0xe3,0x7f,0xeb,0x00,0xb0,0x77,0xdf,0xc0,0x17,0x03,0x00,0x54,0xe3,
 0x58,0xef,0xdf,0xf5,0x41,0xf2,0xff,0xff,0xff,0xff,0x7f,0xc5,0x40,0x9d,0xde,
 0x2b,0x0a,0x00,0x00,0x00,0x00,0x00,0x00,0x00,0x00,0x00,0xeb,0x5f,0x07,0x80,
 0xff,0xdb,0xc7,0xff,0xfe,0x03,0xe0,0xbf,0xfb,0xb3,0xdd,0xff,0x00,0xf0,0xde,
 0xfb,0xc0,0x0b,0x03,0x02,0x7c,0x03,0xc8,0xce,0xbf,0xbd,0x25,0xf8,0xff,0x7f,
 0xff,0xff,0x3f,0xf7,0x93,0xb2,0x62,0x8b,0x02,0x00,0x00,0x00,0x00,0x00,0x00,
 0x00,0x00,0x00,0xbf,0xfd,0x05,0x80,0xdb,0x7f,0xc5,0xda,0x7b,0x01,0x40,0xfb,
 0xaf,0xe3,0x77,0xdb,0x00,0xf0,0x7b,0xef,0xc0,0x07,0x03,0x01,0x00,0x00,0x00,
 0xe4,0xdf,0xba,0x81,0xfc,0x7f,0xf7,0x7f,0xf2,0xff,0xff,0xab,0xd8,0xd4,0x7d,
 0x10,0x00,0x00,0x00,0x00,0x00,0x00,0x00,0x00,0x00,0xf7,0xb7,0x07,0x80,0xff,
 0xed,0xc7,0xff,0xdf,0x01,0xc0,0xdf,0xfa,0xe3,0xde,0xff,0x00,0xb0,0xee,0xfd,
 0xc0,0x0f,0x03,0x02,0x48,0x00,0x10,0xe6,0x7f,0x7b,0x24,0xfc,0xff,0xff,0x03,
 0xf0,0xff,0xf9,0x00,0x55,0xab,0x92,0x04,0x00,0x00,0x00,0x00,0x00,0x00,0x00,
 0x00,0x00,0xbd,0xfd,0x06,0x80,0xdb,0xbf,0xcf,0xad,0xee,0x01,0xc0,0xf6,0xdf,
 0xe3,0x7b,0xed,0x00,0xf0,0xff,0xb7,0xc0,0x07,0x03,0x00,0x68,0x06,0x20,0xee,
 0xaf,0xfd,0x83,0xfc,0xff,0x3f,0x00,0xf4,0xbf,0xdb,0x28,0xa4,0xda,0x57,0x00,
 0x00,0x00,0x00,0x00,0x00,0x00,0x00,0x00,0x00,0xef,0xbf,0x07,0x80,0xf7,0xf6,
 0xcf,0xff,0xfb,0x01,0xc0,0xff,0x76,0xe3,0xfe,0xff,0x00,0xd0,0x6d,0xfd,0xc0,
 0x0b,0x03,0x02,0x7c,0xba,0x6f,0xe6,0xff,0xf2,0x13,0xfc,0xff,0x03,0x44,0xf0,
 0xfd,0xed,0x81,0x54,0x55,0x5d,0x05,0x00,0x00,0x00,0x00,0x00,0x00,0x00,0x00,
 0x00,0xbf,0xed,0x07,0x80,0xdd,0x5f,0xc7,0xf6,0xdf,0x01,0xc0,0xda,0xff,0xe3,
 0x6b,0xdb,0x00,0x70,0xff,0xef,0xc0,0x07,0x03,0x01,0x14,0xeb,0x26,0xe4,0x5f,
 0xef,0x8b,0xfc,0xff,0x00,0x00,0xf0,0xdf,0xfe,0x15,0xec,0xd6,0x56,0x14,0x00,
 0x00,0x00,0x00,0x00,0x00,0x00,0x00,0x00,0xeb,0xff,0x06,0x80,0xff,0xf5,0xc7,
 0xbf,0xf6,0x03,0xe0,0xff,0xb6,0xe3,0xfe,0xff,0x00,0xf0,0x6f,0xfb,0xc0,0x17,
 0x03,0x02,0x14,0xe9,0x22,0xee,0xbf,0xd5,0x20,0xfc,0x2f,0x80,0x00,0xf0,0x7f,
 0xfd,0x41,0xa5,0xda,0xad,0x00,0x00,0x00,0x00,0x00,0x00,0x00,0x00,0x00,0x00,
 0x7f,0xb5,0x07,0x80,0x5b,0xbf,0xc5,0xed,0xdf,0x01,0xe0,0xb6,0xdf,0xe3,0x6f,
 0xfb,0x00,0xb0,0xfd,0xef,0xc0,0x07,0x03,0x00,0x14,0xfb,0x32,0xe6,0xef,0xea,
 0x15,0xfc,0x1f,0x00,0x08,0xf0,0xdf,0xfd,0x20,0xb6,0x76,0x57,0x15,0x00,0x00,
 0x00,0x00,0x00,0x00,0x00,0x00,0x00,0xdd,0xff,0x07,0x80,0xfe,0xef,0xc7,0xff,
 0xf6,0x01,0xe0,0xef,0xfb,0x63,0xfb,0xdf,0x00,0xf8,0x5b,0xfb,0xc0,0x0f,0x03,
 0x02,0x00,0x06,0x18,0xe6,0x5f,0xd7,0x61,0xfc,0x3f,0x08,0x00,0xf0,0x7f,0xff,
 0x26,0xa6,0xd5,0x4a,0x00,0x00,0x00,0x00,0x00,0x00,0x00,0x00,0x00,0x00,0xf7,
 0x6e,0x07,0xc0,0xbb,0x7d,0xc7,0xda,0xdf,0x01,0x60,0x7f,0x6f,0xf1,0x6f,0xfd,
 0x00,0xb8,0xff,0xdd,0xc0,0x07,0x03,0x01,0x00,0x00,0x00,0xe6,0xff,0x8b,0x03,
 0xfc,0x5f,0x90,0x20,0xf0,0xbf,0xff,0x06,0xd6,0xaa,0x3f,0x15,0x00,0x00,0x00,
 0x00,0x00,0x00,0x00,0x00,0x00,0xff,0xfb,0x05,0xc0,0xef,0xdf,0xc7,0xff,0xf5,
 0x01,0xf0,0xdb,0xfb,0x61,0xdb,0xef,0x00,0xf8,0xb6,0x7f,0xc0,0x0f,0x03,0x02,
 0x00,0x00,0x00,0xf6,0xbf,0xff,0xef,0xff,0x7f,0x00,0x00,0xf0,0x6f,0xff,0xfe,
 0x57,0xb7,0xaa,0x00,0x00,0x00,0x00,0x00,0x00,0x00,0x00,0x00,0x00,0x5b,0x6f,
 0x07,0xc0,0x7e,0x7b,0xc7,0xad,0xbf,0x01,0xb0,0x7f,0xef,0xe1,0xff,0xfd,0x00,
 0xec,0xff,0x76,0xc0,0x03,0x03,0x00,0x00,0x00,0x00,0xcc,0x7f,0xbb,0x6f,0xfb,
 0xff,0xaf,0x82,0xf8,0xff,0xdf,0xda,0x6a,0xed,0x55,0x09,0x00,0x00,0x00,0x00,
 0x00,0x00,0x00,0x00,0x00,0xff,0xfb,0x07,0xe0,0xdb,0xef,0xc3,0xff,0xee,0x01,
 0xf8,0xda,0xbf,0xe1,0x75,0xdf,0x00,0xbc,0xb5,0x7f,0xc0,0x17,0x03,0x02,0x00,
 0x00,0x00,0xec,0x5f,0xdb,0xaf,0xfd,0xff,0xff,0xff,0xff,0xdf,0x4f,0xdb,0x52,
 0x6b,0x2f,0x04,0x00,0x00,0x00,0x00,0x00,0x00,0x00,0x00,0x00,0xdb,0x6f,0x07,
 0xf0,0x6f,0xbf,0xc3,0xee,0xfb,0x01,0xdc,0x7f,0xf5,0x60,0xdf,0xf5,0x00,0xfe,
 0xff,0x76,0xc0,0x07,0x03,0x01,0x00,0x00,0x00,0xcc,0xff,0xcb,0xae,0xf5,0xff,
 0xff,0xff,0xff,0xff,0x6f,0x6b,0x73,0xb5,0x55,0x11,0x00,0x00,0x00,0x00,0x00,
 0x00,0x00,0x00,0x00,0xff,0xfa,0x07,0xf8,0xfe,0xf5,0xc3,0xfb,0xbe,0x01,0x7e,
 0xd7,0xff,0xe0,0xfb,0xff,0x00,0xdf,0xae,0x3f,0xc0,0x0f,0x03,0x02,0x00,0x00,
 0x00,0x7c,0xbf,0xed,0xb6,0xf6,0xfd,0xff,0xff,0xff,0xff,0x67,0x6d,0xe3,0xdb,
 0x2e,0x01,0x00,0x00,0x00,0x00,0x00,0x00,0x00,0x00,0x00,0xb7,0xdf,0xfe,0xbf,
 0xbb,0xdf,0xc1,0xef,0xf7,0xff,0xef,0xfd,0xee,0xe0,0x6f,0xdb,0xff,0xfb,0xfb,
 0x36,0xc0,0x0b,0x03,0x00,0x00,0x00,0x00,0xcc,0xff,0x9f,0xbf,0xe6,0xff,0xff,
 0xff,0xff,0xff,0xf7,0x6d,0x33,0xad,0x55,0x10,0x00,0x00,0x00,0x00,0x00,0x00,
 0x00,0x00,0x00,0xfd,0xf7,0xfb,0xef,0xef,0xf7,0xc1,0xbb,0xbd,0xff,0xfb,0xdf,
 0x7b,0x60,0xfd,0xff,0xfe,0xbf,0xfe,0x3f,0xc0,0x07,0x03,0x02,0x00,0x00,0x00,
 0xdc,0xbf,0x12,0x0c,0x80,0xff,0xff,0xff,0xff,0xfe,0x0d,0x00,0xf3,0xfb,0x76,
 0x05,0x00,0x00,0x00,0x00,0x00,0x00,0x00,0x00,0x00,0xd7,0xbd,0xdf,0xbe,0xbe,
 0xbe,0xc0,0xfd,0xf7,0xbd,0x6f,0x7b,0x7f,0xe0,0xb7,0xb6,0xdb,0xf6,0xab,0x1d,
 0xc0,0x0f,0x03,0x01,0x00,0x00,0x00,0xd8,0xff,0xdd,0x7c,0x00,0xff,0xff,0xff,
 0xff,0xff,0xbb,0x95,0x53,0xe6,0x44,0x02,0x00,0x00,0x00,0x00,0x00,0x00,0x00,
 0x00,0x00,0x7f,0xef,0xf6,0xfb,0xed,0xef,0xc0,0x6f,0x7d,0xef,0xde,0xef,0x37,
 0xe0,0xef,0xff,0xff,0x7f,0xff,0x0f,0xc0,0x07,0x03,0x02,0x7c,0xf7,0xfe,0xd9,
 0xfd,0xab,0xfc,0x1b,0xfe,0xff,0xff,0xff,0xff,0x57,0x8b,0xf9,0xbd,0xdf,0x06,
 0x00,0x00,0x00,0x00,0x00,0x00,0x00,0x00,0x00,0xfb,0xfb,0xdf,0xef,0xff,0x7a,
 0xc0,0xfd,0xef,0xfb,0x7b,0xbf,0x1d,0x60,0xbd,0x6b,0xdb,0xea,0xbd,0x0f,0xc0,
 0x17,0x03,0x00,0xdc,0xad,0xb3,0x9d,0xff,0x0a,0xfc,0x1f,0xff,0xff,0xff,0xff,
 0xff,0x6b,0xe3,0xa9,0xf6,0xdf,0x16,0x00,0x00,0x00,0x00,0x00,0x00,0x00,0x00,
 0x00,0xdf,0xde,0xfa,0xfa,0xb6,0x3f,0xc0,0x6f,0xfb,0xbe,0xfe,0xeb,0x1f,0xe0,
 0xff,0xfe,0xff,0xbf,0xef,0x06,0xc0,0x07,0x03,0x02,0xd4,0xab,0x99,0xb7,0xff,
 0xff,0xfa,0xff,0xff,0xff,0xff,0xff,0xff,0x6f,0xf3,0xf8,0xf5,0xdd,0x06,0x00,
 0x00,0x00,0x00,0x00,0x00,0x00,0x00,0x00,0xfb,0xf7,0x6f,0x6f,0xff,0x3d,0xc0,
 0xbe,0xaf,0xf7,0xb7,0xff,0x0e,0x70,0xf7,0x5b,0x6b,0xff,0xfe,0x03,0xc0,0x07,
 0x03,0x01,0x54,0xab,0x76,0xb2,0xff,0xfe,0xf0,0xff,0xff,0xff,0xff,0xff,0xff,
 0xaf,0xf9,0x4c,0x7f,0x4f,0x02,0x00,0x00,0x00,0x00,0x00,0x00,0x00,0x00,0x00,
 0xbf,0xbe,0xfd,0xff,0x5b,0x1f,0x80,0xfb,0xfd,0xdd,0xed,0xba,0x07,0xe0,0xdd,
 0xfe,0xff,0xab,0xb7,0x01,0xc0,0x0b,0x03,0x02,0x00,0x00,0x18,0xbb,0xfb,0xdb,
 0x12,0xff,0xff,0xff,0xff,0xef,0xfb,0xbf,0xfd,0x7c,0xab,0xb9,0x01,0x00,0x00,
 0x00,0x00,0x00,0x00,0x00,0x00,0x00,0xed,0xfb,0xd7,0xb6,0xff,0x07,0xc0,0xef,
 0xf7,0x7f,0xff,0xef,0x03,0xe0,0x7f,0xb7,0x6d,0xff,0xfe,0x00,0xc0,0x17,0x03,
 0x00,0x48,0x08,0x00,0x60,0xff,0xdb,0x98,0xfd,0xff,0xdf,0xff,0xff,0xff,0xff,
 0xbd,0xd6,0x6b,0x0b,0x08,0x00,0x00,0x00,0x00,0x00,0x00,0x00,0x00,0x00,0x7f,
 0xdf,0xfe,0xff,0xd6,0x03,0xc0,0xbd,0x5e,0xeb,0xb7,0xfd,0x01,0xa0,0xd5,0xff,
 0xff,0xef,0x77,0x00,0xc0,0x07,0x03,0x02,0x68,0x06,0x00,0x30,0xff,0x5f,0x9b,
 0xf5,0xff,0xff,0xff,0xff,0xff,0xff,0x1f,0x7e,0xa9,0x4a,0x00,0x00,0x00,0x00,
 0x00,0x00,0x00,0x00,0x00,0x00,0xfb,0xfd,0xdb,0xf6,0xff,0x01,0xc0,0xf7,0xfb,
 0xbf,0xff,0x7f,0x00,0xe0,0xff,0xda,0xda,0xba,0x1d,0x00,0xc0,0x0f,0x03,0x01,
 0x7c,0xfa,0xff,0xf8,0xee,0x7f,0x9b,0xb6,0xff,0xfd,0xf7,0xfe,0xff,0xfd,0x5f,
 0xaa,0xff,0x1a,0x0b,0x00,0x00,0x00,0x00,0x00,0x00,0x00,0x00,0x00,0xaf,0xaf,
 0xfe,0x5f,0x3f,0x00,0xc0,0x7d,0xef,0xf6,0xb5,0x1f,0x00,0x60,0xbb,0xf7,0xff,
 0xff,0x07,0x00,0xc0,0x07,0x03,0x02,0x14,0xeb,0x7e,0xfe,0xfe,0xbf,0x20,0x80,
 0xff,0xff,0xff,0xff,0xff,0xfa,0x07,0xff,0xfd,0xce,0x00,0x00,0x00,0x00,0x00,
 0x00,0x00,0x00,0x00,0x00,0xff,0xff,0xff,0xff,0x07,0x00,0xc0,0xff,0xff,0xff,
 0xff,0x01,0x00,0xf0,0xff,0xff,0xff,0xff,0x00,0x00,0xc0,0x07,0x03,0x00,0x14,
 0xe9,0x6a,0x7f,0xed,0x7f,0x4b,0x92,0xff,0xff,0xff,0xff,0xff,0xd7,0x77,0xd7,
 0xef,0x8e,0x03,0x00,0x00,0x00,0x00,0x00,0x00,0x00,0x00,0x00,0x00,0x00,0x00,
 0x00,0x00,0x00,0x00,0x00,0x00,0x00,0x00,0x00,0x00,0x00,0x00,0x00,0x00,0x00,
 0x00,0x00,0xc0,0x0f,0x03,0x02,0x14,0xab,0xab,0xff,0xfa,0xdf,0x84,0x84,0xff,
 0xff,0xff,0xdf,0xfd,0xbf,0x07,0xbf,0xfe,0x2f,0x04,0x00,0x00,0x00,0x00,0x00,
 0x00,0x00,0x00,0x00,0x00,0x00,0x00,0x00,0x00,0x00,0x00,0x00,0x00,0x00,0x00,
 0x00,0x00,0x00,0x00,0x00,0x00,0x00,0x00,0x00,0xc0,0x07,0x03,0x01,0x00,0x02,
 0xe0,0xff,0xbd,0x7f,0x52,0x80,0xff,0xff,0xff,0xff,0xff,0xd7,0x8e,0x75,0x95,
 0x02,0x00,0x00,0x00,0x00,0x00,0x00,0x00,0x00,0x00,0x00,0x00,0x00,0x00,0x00,
 0x00,0x00,0x00,0x00,0x00,0x00,0x00,0x00,0x00,0x00,0x00,0x00,0x00,0x00,0x00,
 0x00,0xc0,0x0b,0x03,0x02,0x00,0x00,0xf8,0xff,0xf5,0xff,0x0b,0xf1,0xff,0xbf,
 0xff,0xff,0xff,0xeb,0xee,0xdf,0x6d,0x55,0x04,0x00,0x00,0x00,0x00,0x00,0x00,
 0x00,0x00,0x00,0x00,0x00,0x00,0x00,0x00,0x00,0x00,0x00,0x00,0x00,0x00,0x00,
 0x00,0x00,0x00,0x00,0x00,0x00,0x00,0x00,0xc0,0x07,0x03,0x00,0x00,0x00,0xfc,
 0xff,0x7b,0xff,0x3f,0xfe,0xff,0xff,0xff,0xff,0xff,0xdf,0x8a,0x3a,0xbb,0x11,
 0x01,0x00,0x00,0x00,0x00,0x00,0x00,0x00,0x00,0x00,0x00,0x00,0x00,0x00,0x00,
 0x00,0x00,0x00,0x00,0x00,0x00,0x00,0x00,0x00,0x00,0x00,0x00,0x00,0x00,0x00,
 0xc0,0x17,0x03,0x02,0x00,0x00,0xff,0xff,0xe7,0xff,0xff,0xff,0xff,0xff,0xbb,
 0xff,0xff,0xff,0xea,0xcf,0x56,0x46,0x00,0x00,0x00,0x00,0x00,0x00,0x00,0x00,
 0x00,0x00,0x00,0x00,0x00,0x00,0x00,0x00,0x00,0x00,0x00,0x00,0x00,0x00,0x00,
 0x00,0x00,0x00,0x00,0x00,0x00,0x00,0xc0,0x07,0x03,0x01,0x00,0x80,0xff,0xff,
 0xef,0xfd,0xfe,0xff,0xfc,0xff,0xff,0xff,0xff,0xff,0xe3,0x6e,0xf7,0x22,0x00,
 0x00,0x00,0x00,0x00,0x00,0x00,0x00,0x00,0x00,0x00,0x00,0x00,0x00,0x00,0x00,
 0x00,0x00,0x00,0x00,0x00,0x00,0x00,0x00,0x00,0x00,0x00,0x00,0x00,0x00,0xc0,
 0x0b,0x03,0x02,0x00,0xe0,0xff,0xff,0xdf,0xff,0xf3,0x3f,0xfe,0xff,0xff,0xbf,
 0xfe,0xff,0xf3,0xb3,0x4a,0x11,0x02,0x00,0x00,0x00,0x00,0x00,0x00,0x00,0x00,
 0x00,0x00,0x00,0x00,0x00,0x00,0x00,0x00,0x00,0x00,0x00,0x00,0x00,0x00,0x00,
 0x00,0x00,0x00,0x00,0x00,0x00,0xc0,0x17,0x03,0x00,0x00,0xf0,0xff,0xff,0xbb,
 0xff,0xaf,0x0f,0xfe,0xff,0xff,0x57,0xdd,0xff,0x79,0x57,0x5f,0x45,0x00,0x00,
 0x44,0x2a,0x49,0x12,0x65,0x5b,0xb5,0xfe,0xbf,0xff,0xff,0xff,0xff,0xff,0xff,
 0xff,0xff,0xff,0xff,0xff,0xff,0xff,0xff,0xff,0xff,0xff,0xff,0xff,0xff,0x07,
 0x03,0x02,0x00,0xfc,0xff,0xff,0xb2,0xfb,0x57,0x41,0xfc,0xff,0x7f,0xa9,0xfd,
 0xef,0xf8,0xe9,0xb2,0x90,0x00,0xa0,0x08,0x41,0x20,0x54,0x09,0x64,0xad,0x02,
 0x70,0x49,0x95,0x6a,0xdb,0x76,0x7b,0xb7,0x7b,0xf7,0xee,0xef,0xff,0xff,0xff,
 0xbf,0xff,0xff,0xff,0xff,0xbf,0x0f,0x03,0x01,0x00,0xfe,0xff,0xbf,0xb1,0xfe,
 0x5f,0x95,0xfc,0xff,0x4b,0x6d,0xfd,0x5f,0xdd,0x5c,0x57,0x04,0x00,0x08,0x41,
 0x08,0x8a,0x00,0xa8,0x09,0x92,0xb4,0x4d,0xb5,0xea,0xaa,0x6c,0xdb,0xd6,0xed,
 0xdd,0xbd,0xfd,0xba,0x6d,0xdb,0xb6,0xed,0x07,0xde,0xf6,0xc9,0xf7,0x07,0x03,
 0x02,0xc0,0xff,0xff,0x7f,0xf8,0xde,0x7f,0x53,0xfe,0xbf,0xb4,0xb5,0xfa,0x3f,
 0x7e,0x73,0x55,0x01,0x04,0x00,0x14,0xa1,0x00,0x5a,0x43,0xb2,0x44,0xa5,0xa2,
 0x54,0x55,0xdb,0xdb,0xb6,0x5d,0xb7,0x6e,0xd7,0xdb,0xff,0xf7,0xff,0xdf,0x77,
 0x01,0xf0,0x1f,0x00,0xde,0x07,0x03,0x00,0xfc,0xff,0xff,0x2f,0x7c,0xfd,0x7f,
 0x09,0xfc,0x5f,0x5b,0x4d,0xff,0xbf,0x5f,0xad,0x2d,0x58,0x00,0x40,0x40,0x12,
 0xa4,0x40,0x94,0x04,0x2a,0x52,0x5c,0xaf,0xae,0x6a,0x56,0xab,0xeb,0xdd,0xf7,
 0xfb,0xee,0x6d,0xbd,0x6d,0xf5,0xfd,0x01,0x60,0x1b,0x00,0xfe,0x0f,0x03,0x02,
 0xf4,0xff,0xff,0x0b,0xff,0xfd,0xff,0xfd,0xff,0xaf,0xb6,0xfa,0xff,0x9f,0xbb,
 0x5a,0x95,0x02,0x00,0x04,0x8a,0x44,0x11,0x0a,0x11,0x69,0xe9,0xaa,0x21,0xd4,
 0x6a,0xad,0xad,0x6e,0xaf,0xb6,0xae,0xee,0xbb,0xff,0xff,0xff,0x7f,0xff,0x01,
 0xe0,0x1f,0x00,0xb4,0x07,0x03,0x01,0xfc,0xff,0xff,0x8d,0xff,0xd7,0xfe,0xdd,
 0xff,0xdf,0xca,0xff,0xef,0xa7,0x57,0x57,0x53,0x04,0x00,0x40,0x20,0x28,0x80,
 0x40,0x48,0x0a,0x14,0x52,0xee,0xaa,0xaa,0x75,0xf6,0xdb,0xda,0xef,0xfb,0xdd,
 0x7e,0xdb,0xd6,0xda,0xc8,0x85,0x7d,0x60,0x9b,0x03,0xfc,0x0b,0x03,0x02,0xfc,
 0xff,0xff,0xe2,0xff,0xf7,0xff,0xe7,0xff,0x0f,0xfd,0xbf,0xc9,0xeb,0xef,0xda,
 0x0c,0x01,0x00,0x80,0x44,0x01,0x25,0x8a,0xa2,0xe8,0xd2,0xaa,0x88,0xaa,0x56,
 0xcb,0x25,0xad,0xbd,0xba,0xad,0x7f,0xdb,0xef,0xff,0xef,0xc1,0xc1,0x7f,0xe0,
 0xff,0x07,0xac,0x07,0x03,0x00,0xff,0xff,0xbf,0xf0,0xaf,0xad,0xf7,0xff,0xff,
 0xff,0xff,0xa5,0xf6,0xf1,0xa9,0xae,0x22,0x08,0x00,0x28,0x22,0x52,0x08,0x40,
 0x08,0x05,0x09,0x95,0x76,0x55,0x69,0xb5,0xfa,0xb6,0xeb,0x6e,0xfb,0xea,0xff,
 0xfb,0xb6,0xfd,0xc1,0xc1,0x03,0xf0,0xed,0x07,0xfe,0x17,0x03,0x82,0xff,0xff,
 0x5f,0xfc,0xfb,0x76,0xff,0xff,0xff,0xff,0x0f,0x5d,0x6d,0xbd,0xbe,0x59,0x05,
 0x01,0x00,0x00,0x90,0x84,0xa0,0x54,0x55,0x6a,0x6a,0x52,0x49,0xad,0xad,0xad,
 0x96,0xed,0xb6,0xdb,0xb7,0xbf,0xb5,0xde,0xff,0xb7,0xc1,0xc1,0x03,0x78,0xbf,
 0x03,0xde,0x07,0x03,0xe1,0xff,0xff,0x2f,0xfe,0xdd,0xfa,0xfe,0xff,0xff,0x7f,
 0xf3,0xd6,0xba,0xde,0x5f,0x56,0x00,0x08,0x07,0x00,0x05,0x28,0x0a,0x88,0x40,
 0x81,0x24,0x55,0x55,0x52,0xaa,0xda,0xed,0x56,0xdb,0x76,0xdd,0x55,0xff,0xf7,
 0x5a,0xfd,0x83,0x60,0x03,0xfc,0xeb,0x01,0xfb,0x0f,0x03,0xf0,0xff,0xff,0x83,
 0x7f,0xfe,0xef,0xf5,0xff,0xff,0x4f,0xad,0x35,0xaf,0xff,0xff,0xcb,0xbf,0x9b,
 0x02,0x00,0x24,0x81,0x20,0x21,0x14,0x9a,0xa8,0x94,0x55,0xb5,0xdb,0x56,0xab,
 0xbd,0xb6,0xdb,0x7b,0xff,0x6d,0xdf,0xff,0xef,0x83,0xe0,0x23,0x60,0xff,0x80,
 0xaf,0x07,0x03,0xfd,0xff,0xff,0xc5,0xdf,0xbb,0x6f,0xf7,0xff,0xff,0xdf,0x6a,
 0xe5,0xd7,0xfb,0xef,0x6b,0xb5,0x99,0x02,0x40,0x20,0x52,0x88,0x84,0x4a,0x25,
 0x45,0x55,0xaa,0xaa,0x54,0xb5,0xfa,0xd6,0x6d,0xbd,0xee,0xb6,0xff,0xfb,0xdb,
 0x7b,0x07,0xe0,0x7f,0xe0,0x7f,0xc0,0xff,0x0f,0x03,0xfc,0xff,0x7f,0xf0,0xbf,
 0xff,0x7f,0xaf,0xfe,0xff,0xbf,0x5b,0xfd,0xf1,0xff,0xfb,0xe7,0xbf,0x99,0x02,
 0x10,0x4a,0x04,0x21,0x08,0x90,0x48,0x1a,0xa9,0xa4,0xad,0xab,0x6d,0x4b,0xb5,
 0xfb,0xeb,0xad,0xfb,0xaa,0x6f,0x7f,0xef,0x07,0xf0,0x7e,0x20,0x38,0xe0,0xb7,
 0x13,0x03,0xfc,0xff,0x7f,0xf9,0xef,0xfb,0x77,0xff,0xff,0xff,0xbf,0xa4,0x3f,
 0xfd,0xdf,0x7f,0xe1,0x7a,0x8b,0x02,0x80,0x00,0x51,0x08,0x52,0x25,0xa5,0x4a,
 0x49,0x55,0x4a,0x5a,0xd5,0x7a,0xdb,0x56,0x7d,0x7b,0xb7,0xff,0xfa,0xed,0xbe,
 0x05,0xb0,0x11,0x20,0x18,0x50,0xfc,0x0f,0x03,0xfc,0xff,0x0f,0xfe,0xf6,0x4e,
 0x54,0x69,0xf5,0xff,0xff,0xff,0xaf,0xff,0xfb,0x49,0x1f,0x00,0xc4,0x01,0x80,
 0x2a,0x02,0xa1,0x10,0x4a,0x28,0xb2,0x56,0xd5,0x6a,0x6b,0x5b,0xd7,0x6e,0xdd,
 0xab,0xd7,0xdd,0xd6,0x6f,0xbf,0xfb,0x0f,0xf8,0x01,0x20,0x18,0x00,0xac,0x07,
 0x03,0xfd,0xff,0x17,0xbf,0xff,0x77,0x8b,0xd4,0x5f,0xff,0xff,0xff,0xd2,0xff,
 0xef,0xbb,0x20,0x14,0x00,0x00,0x28,0x80,0x54,0x08,0xa4,0x10,0x85,0x88,0xa8,
 0x52,0x55,0x55,0xad,0x55,0x5b,0x77,0xfd,0xfd,0xbf,0xff,0xfb,0xed,0xdf,0x0e,
 0xf8,0x01,0x30,0x18,0x00,0xfc,0x0b,0x03,0xfc,0xff,0x81,0xff,0x3a,0x8a,0x28,
 0x16,0xbd,0xda,0xff,0x6f,0xfd,0xff,0xff,0x0a,0x01,0x04,0x00,0x00,0x00,0x49,
 0x80,0xa2,0x00,0xa5,0xaa,0x55,0x92,0x4a,0x55,0xdb,0xaa,0xba,0xf5,0xda,0xab,
 0xab,0xea,0xba,0xef,0x7f,0xf7,0x0b,0xd8,0x01,0x38,0x18,0x00,0xbc,0x07,0x03,
 0xfc,0x7f,0xe5,0xb7,0xdf,0x7f,0x87,0xff,0xf7,0x57,0xa5,0xaa,0xff,0xff,0xf7,
 0x7f,0x9c,0xf7,0xc3,0x07,0x00,0x10,0x25,0x08,0x52,0x88,0xa0,0xa0,0xad,0xb4,
 0x56,0x55,0x6b,0x57,0x5d,0x6f,0x7d,0xfd,0xff,0xef,0x7a,0xdb,0x7d,0xff,0xbf,
 0xff,0xff,0xff,0xff,0xf7,0x0f,0x03,0xfc,0xff,0xf0,0xdf,0xda,0xfe,0xd7,0xaa,
 0xdb,0xff,0xfd,0xfe,0xff,0xff,0x7f,0xf5,0xb3,0xac,0x42,0x05,0x44,0x42,0x48,
 0x42,0x80,0x24,0x15,0x8d,0x50,0x2b,0x69,0xab,0x56,0xed,0xd5,0xba,0xab,0x57,
 0xd5,0xfd,0xdf,0x7f,0xb7,0xff,0xff,0xff,0xff,0xdb,0xff,0xdf,0x07,0x03,0xfd,
 0x1f,0xfc,0xfb,0xff,0xd7,0xc3,0xfa,0x5d,0xff,0xff,0xff,0xff,0xff,0xff,0xbf,
 0xbb,0xae,0x43,0x07,0x00,0x00,0x00,0x00,0x00,0x00,0x00,0x00,0x00,0x40,0x04,
 0x20,0x48,0x11,0x2a,0x45,0x55,0x55,0x5d,0xab,0x6a,0xd5,0xed,0xaa,0xaa,0xaa,
 0xaa,0x76,0x55,0xed,0x0b,0x03,0xfc,0x37,0x7e,0xaf,0x5a,0x5f,0xc1,0xda,0xdd,
 0xab,0xff,0xff,0xff,0xff,0x7f,0x2f,0xc0,0xea,0xc1,0xf3,0xff,0xff,0xff,0xff,
 0xff,0xff,0xff,0xff,0xff,0xff,0xff,0xff,0xff,0xff,0xff,0xff,0xff,0xff,0xff,
 0xff,0xff,0xff,0xff,0xff,0xff,0xff,0xff,0xff,0xff,0xff,0x07,0x03,0xfc,0x87,
 0xbf,0xfb,0x37,0x01,0x3c,0x00,0xb2,0xea,0xff,0xff,0xff,0xff,0x3f,0x20,0x04,
 0x00,0x3e,0xe0,0xff,0xff,0xff,0xff,0xff,0xff,0xff,0xff,0xff,0xff,0xff,0xff,
 0xff,0xff,0xff,0xff,0xff,0xff,0xff,0xff,0xff,0xff,0xff,0xff,0xff,0xff,0xff,
 0xff,0xff,0xff,0x17,0x03,0xfc,0xc2,0xef,0xae,0xdd,0x4a,0x21,0x89,0xc4,0x9e,
 0xff,0xff,0xff,0xff,0x9f,0x02,0x01,0x00,0x00,0xc8,0xff,0xff,0xff,0xff,0xff,
 0xff,0xff,0xff,0xff,0xff,0xff,0xff,0xff,0xff,0xff,0xff,0xff,0xff,0xff,0xff,
 0xff,0xff,0xff,0xff,0xff,0xff,0xff,0xff,0xff,0xff,0x05,0x03,0xfd,0xf0,0xf7,
 0xbb,0x23,0x00,0x58,0x22,0x32,0xe2,0xff,0xff,0xff,0xff,0x9f,0xa8,0x00,0x00,
 0x00,0xa0,0xee,0xff,0xff,0xff,0xff,0xff,0xff,0xff,0xff,0xff,0xff,0xff,0xff,
 0xff,0xff,0xff,0xff,0xff,0x7f,0xdf,0xff,0x7f,0x7f,0xff,0xff,0xff,0xff,0xef,
 0xfe,0x7b,0x03,0x03,0x5c,0xf8,0x7d,0xef,0xbe,0x7f,0xcf,0x96,0xa4,0xfd,0x7d,
 0xfd,0xff,0xff,0x1f,0x04,0x02,0x00,0x00,0x00,0x12,0x08,0x00,0x20,0x22,0x00,
 0x00,0x00,0x01,0x00,0x80,0x10,0x02,0x00,0x00,0x00,0x00,0x10,0x40,0x51,0x00,
 0x80,0x40,0x00,0x00,0x00,0x00,0x88,0x00,0x82,0x00,0x03,0x2c,0xfe,0xd7,0xdb,
 0xb7,0xd3,0x4d,0x26,0x88,0x9c,0xfe,0xff,0xff,0xff,0x3f,0x41,0x00,0x00,0x00,
 0x80,0x40,0x22,0x55,0x8a,0x08,0x00,0xa9,0x54,0x48,0x92,0x00,0x00,0x40,0x52,
 0x12,0x90,0x48,0x02,0x01,0x00,0x24,0x01,0x12,0x49,0x49,0x92,0x4a,0x22,0x4a,
 0x28,0x02,0x03,0x04,0xbf,0xbe,0x2e,0xdd,0xdc,0x45,0x02,0x45,0x4c,0xff,0xff,
 0xff,0xff,0xbb,0x10,0x00,0x00,0x00,0x00,0x00,0x00,0x00,0x00,0xc0,0x3f,0x00,
 0x00,0x00,0x00,0xfe,0xc3,0x03,0x00,0xc0,0x03,0x00,0x00,0xfc,0x06,0x00,0x3e,
 0x00,0x00,0x00,0x00,0x00,0x00,0x00,0x00,0x00,0x03,0xc5,0xbf,0xf7,0x77,0x77,
 0xf7,0x6c,0x03,0x10,0x7c,0xff,0xff,0xff,0xff,0x3b,0x02,0x00,0x00,0x00,0x00,
 0x00,0x00,0x00,0x00,0xc0,0xff,0x00,0x00,0x07,0x00,0xfe,0xcf,0x0b,0x00,0xc0,
 0x03,0x00,0x00,0xfc,0x0f,0x00,0x3e,0x00,0x00,0x00,0x00,0x00,0x00,0x00,0x00,
 0x00,0x03,0xf0,0xdf,0xae,0x5a,0x00,0x00,0xb8,0x81,0x4a,0x81,0xff,0xff,0xff,
 0xff,0x39,0x00,0x00,0x00,0x00,0x00,0x00,0x00,0x00,0x00,0xc0,0xff,0x01,0x80,
 0x17,0x00,0xfe,0xdf,0x03,0x00,0xc0,0x0b,0x00,0x00,0xfc,0x3f,0x00,0x3e,0x00,
 0x00,0x00,0x00,0x00,0x00,0x00,0x00,0x00,0x03,0xf8,0xd7,0xfd,0xad,0x86,0x02,
 0x00,0x00,0x80,0xe0,0xe7,0xff,0xff,0xff,0x39,0x01,0x00,0x00,0x00,0x00,0x00,
 0x00,0x00,0x00,0xc0,0xfb,0x83,0x83,0x07,0x1c,0xbe,0x1f,0xcc,0xc1,0xc3,0x8f,
 0xc3,0xe3,0xbc,0x3f,0x38,0xfe,0xe3,0x70,0xf8,0x83,0x3f,0x38,0xdc,0x00,0x00,
 0x03,0xfc,0x69,0x57,0x4b,0x14,0x00,0x00,0x04,0x00,0xf2,0x43,0xff,0xff,0x7f,
 0x3c,0x00,0x00,0x00,0x00,0x00,0x00,0x00,0x00,0x00,0xc0,0xd7,0xf7,0xef,0x9f,
 0x7f,0x5e,0xff,0xf3,0xfb,0xcf,0xf3,0xcf,0xf3,0x7c,0x7d,0xfe,0xfe,0xe7,0x79,
 0xfe,0xe7,0x7f,0xfe,0xfe,0x01,0x00,0x03,0xfd,0xda,0xdb,0x2a,0x41,0x01,0xf8,
 0xde,0x3f,0xf0,0x2a,0xfe,0xff,0x7f,0x38,0x00,0x00,0x00,0x00,0x00,0x00,0x00,
 0x00,0x00,0xc0,0xcb,0xf7,0xff,0xdf,0xff,0x5e,0xfe,0xfb,0xff,0xdf,0xff,0xdf,
 0xf3,0xbc,0x7c,0xff,0xfc,0xef,0x79,0xff,0xf7,0x7f,0xff,0xfc,0x01,0x00,0x03,
 0x3c,0x68,0xb7,0xa5,0x04,0x00,0xec,0x53,0x25,0xf7,0x6f,0xfe,0xff,0x1f,0x7a,
 0x00,0x00,0x00,0x00,0x00,0x00,0x00,0x00,0x00,0xc0,0xcf,0x17,0x9e,0x5f,0xf8,
 0x7e,0xfc,0x7b,0xf8,0xff,0x0b,0xdf,0xf3,0xfd,0xfc,0xe7,0xbf,0xef,0x79,0x9f,
 0xf7,0xfc,0xe7,0xff,0x07,0x00,0x03,0x1c,0xdb,0xba,0x48,0x28,0x00,0xac,0x6a,
 0x35,0x17,0x91,0xfe,0xff,0x87,0x72,0x00,0x00,0x00,0x00,0x00,0x00,0x00,0x00,
 0x00,0xc0,0xc7,0xc7,0xbf,0x2f,0xff,0x5e,0xfc,0xf7,0x7b,0xfc,0xe7,0xbf,0x7b,
 0x7d,0xfc,0xff,0x7d,0xff,0x73,0xef,0x7f,0xbf,0xff,0xbd,0x02,0x00,0x03,0x84,
 0x54,0xa7,0x12,0x01,0x00,0xec,0xfa,0x34,0x70,0xf1,0xfa,0xff,0x00,0xf2,0x00,
 0x00,0x00,0x00,0x00,0x00,0x00,0x00,0x00,0xc0,0xcb,0xff,0x9f,0xd7,0xff,0x3e,
 0xfe,0xeb,0xfb,0xfd,0xfb,0x9f,0xff,0xbd,0xfc,0xff,0x3f,0xee,0xfb,0x9f,0xff,
 0xfc,0xff,0x7f,0x05,0x00,0x03,0x11,0x55,0x59,0x49,0x04,0x00,0x00,0x00,0x00,
 0x00,0x00,0xfc,0xd6,0xa1,0xf4,0x00,0x00,0x00,0x00,0x00,0x00,0x00,0x00,0x00,
 0xc0,0xe3,0xfb,0xbe,0xc7,0xf7,0x5e,0xfe,0xc7,0x7b,0xfc,0xff,0x3e,0xbf,0x3c,
 0xbe,0x07,0x7e,0xff,0x79,0x8f,0x7f,0xbd,0x07,0x7e,0x00,0x00,0x03,0x82,0x68,
 0x25,0x85,0x00,0x00,0x00,0xa8,0x08,0xd2,0xd0,0x6c,0xff,0x79,0xfe,0x00,0x00,
 0x00,0x00,0x00,0x00,0x00,0x00,0x00,0xc0,0xff,0x7f,0xbe,0xff,0xf3,0xfe,0xdf,
 0xdb,0xff,0xff,0x7b,0x3e,0xff,0xfc,0xbf,0xdf,0xfe,0xef,0x7f,0xff,0xf7,0xff,
 0xdf,0xbe,0x00,0x00,0x03,0x10,0xe9,0x06,0x00,0x00,0x00,0x00,0xac,0x29,0xef,
 0xb0,0xde,0xff,0x7f,0x72,0x00,0x00,0x00,0x00,0x00,0x00,0x00,0x00,0x00,0xc0,
 0xff,0xfb,0xbf,0xdf,0xff,0xfe,0xdf,0xfb,0xfb,0xdf,0xfb,0x5f,0x3f,0xfd,0x7f,
 0xff,0xfe,0xef,0xff,0xfe,0xf7,0x7f,0xff,0x7e,0x00,0x00,0x03,0x42,0x7c,0xfb,
 0xfd,0xea,0x3f,0x4a,0xac,0x3c,0x27,0xb8,0xf3,0x05,0x3f,0x02,0x00,0x00,0x00,
 0x00,0x00,0x00,0x00,0x00,0x00,0xc0,0xff,0xfa,0xdf,0xdf,0xf7,0xff,0xd7,0xff,
 0xfb,0xef,0xff,0x3e,0xfe,0xfc,0x6f,0xfe,0xde,0xf7,0xf7,0xbe,0xf7,0x7f,0xfe,
 0x7e,0x00,0x00,0x03,0x11,0x3c,0x6b,0xa7,0xab,0x68,0xee,0xbc,0xf4,0x35,0xe8,
 0xf1,0x8d,0x3f,0x01,0x00,0x00,0x00,0x00,0x00,0x00,0x00,0x00,0x00,0x00,0x56,
 0xc3,0x61,0x2e,0x46,0x61,0x3a,0x4a,0x7d,0x35,0xc5,0x28,0xbe,0x60,0x39,0x38,
 0x61,0x1d,0xab,0xc0,0x07,0xf8,0x39,0x51,0x01,0x00,0x03,0x82,0x14,0xeb,0xbd,
 0xad,0x2e,0xf7,0xa4,0x54,0x35,0x48,0xfb,0x8e,0x30,0x03,0x00,0x00,0x00,0x00,
 0x00,0x00,0x00,0x00,0x00,0x00,0xdb,0xa2,0x3a,0x38,0x9e,0xb5,0x07,0xd6,0x7b,
 0x1d,0xae,0xfb,0x5f,0xb0,0x2f,0xe8,0xd9,0x0e,0xed,0xfe,0xff,0x7f,0xe8,0xb3,
 0x00,0x00,0x03,0xa0,0x14,0xcb,0x6e,0xbf,0x3b,0x00,0xf6,0x57,0x35,0x48,0xee,
 0xfa,0x13,0x01,0x00,0x00,0x00,0x00,0x00,0x00,0x00,0x00,0x00,0x00,0x44,0x00,
 0x01,0x4a,0x00,0x80,0x10,0x01,0xf8,0x40,0x00,0xc0,0x6f,0x40,0x00,0x20,0x02,
 0x02,0x0a,0xfe,0xe7,0xff,0x80,0x00,0x00,0x00,0x03,0x02,0x00,0x02,0x00,0x00,
 0x00,0x00,0x00,0x00,0x80,0x07,0xe8,0x00,0x08,0x03,0x00,0x00,0x00,0x00,0x00,
 0x00,0x00,0x00,0x00,0x00,0x00,0x00,0x00,0x00,0x00,0x00,0x00,0x00,0x78,0x02,
 0x00,0xc0,0x37,0x00,0x00,0x80,0x00,0x00,0x00,0xfe,0xef,0x5f,0x21,0x00,0x00,
 0x00,0x03,0x41,0x55,0x48,0x00,0x00,0x00,0x00,0x00,0x00,0x00,0x00,0xf0,0x01,
 0x00,0x00,0x00,0x00,0x00,0x00,0x00,0x00,0x00,0x00,0x00,0x00,0x00,0x00,0x00,
 0x00,0x00,0x00,0x00,0x00,0xc0,0x00,0x00,0x80,0x3b,0x00,0x00,0x00,0x00,0x00,
 0x00,0x70,0x0a,0xe7,0x00,0x00,0x00,0x00,0x03,0x12,0x80,0x02,0x00,0x00,0x00,
 0x00,0x00,0x00,0x00,0x00,0x80,0x00,0x00,0x00,0x00,0x00,0x00,0x00,0x00,0x00,
 0x00,0x00,0x00,0x00,0x00,0x00,0x00,0x00,0x00,0x00,0x00,0x00,0xa0,0x01,0x00,
 0x00,0x16,0x00,0x00,0x00,0x00,0x00,0x00,0xa0,0x0b,0x3d,0x01,0x00,0x00,0x00,
 0x03,0x00,0x12,0x04,0x00,0x00,0x00,0x00,0x00,0x00,0x00,0x00,0x00,0x00,0x00,
 0x00,0x00,0x00,0x00,0x00,0x00,0x00,0x00,0x00,0x00,0x00,0x00,0x00,0x00,0x00,
 0x00,0x00,0x00,0x00,0x00,0x00,0x00,0x00,0x08,0x00,0x00,0x00,0x00,0x00,0x00,
 0x88,0x82,0x20,0x00,0x00,0x00,0x00,0x03,0x02,0x08,0x00,0x00,0x00,0x00,0x00,
 0x00,0x00,0x00,0x00,0x00,0x00,0x00,0x00,0x00,0x00,0x00,0x00,0x00,0x00,0x00,
 0x00,0x00,0x00,0x00,0x00,0x00,0x00,0x00,0x00,0x00,0x00,0x00,0x00,0x00,0x00,
 0x04,0x00,0x00,0x00,0x00,0x00,0x00,0x00,0x00,0x04,0x00,0x00,0x00,0x00,0x03,
 0x01,0xa0,0x00,0x00,0x00,0x00,0x00,0x00,0x00,0x00,0x00,0x00,0x00,0x00,0x00,
 0x00,0x00,0x00,0x00,0x00,0x00,0x00,0x00,0x00,0x00,0x00,0x00,0x00,0x00,0x00,
 0x00,0x00,0x00,0x00,0x00,0x00,0x00,0x00,0x00,0x00,0x00,0x00,0x00,0x00,0x00,
 0x00,0x00,0x00,0x00,0x00,0x00,0x03,0x02,0x00,0x00,0x00,0x00,0x00,0x00,0x00,
 0x00,0x00,0x00,0x00,0x00,0x00,0x00,0x00,0x00,0x00,0x00,0x00,0x00,0x00,0x00,
 0x00,0x00,0x00,0x00,0x00,0x00,0x00,0x00,0x00,0x00,0x00,0x00,0x00,0x00,0x00,
 0x00,0x00,0x00,0x00,0x00,0x00,0x00,0x00,0x00,0x00,0x00,0x00,0x00,0x03,0x00,
 0x00,0x00,0x00,0x00,0x00,0x00,0x00,0x00,0x00,0x00,0x00,0x00,0x00,0x00,0x00,
 0x00,0x00,0x00,0x00,0x00,0x00,0x00,0x00,0x00,0x00,0x00,0x00,0x00,0x00,0x00,
 0x00,0x00,0x00,0x00,0x00,0x00,0x00,0x00,0x00,0x00,0x00,0x00,0x00,0x00,0x00,
 0x00,0x00,0x00,0x00,0x00,0x03,0xfc,0xff,0xff,0xff,0xff,0xff,0xff,0xff,0xff,
 0xff,0xff,0xff,0xff,0xff,0xff,0xff,0xff,0xff,0xff,0xff,0xff,0xff,0xff,0xff,
 0xff,0xff,0xff,0xff,0xff,0xff,0xff,0xff,0xff,0xff,0xff,0xff,0xff,0xff,0xff,
 0xff,0xff,0xff,0xff,0xff,0xff,0xff,0xff,0xff,0xff,0xff,0xff,0x03,0xfe,0xff,
 0xff,0xff,0xff,0xff,0xff,0xff,0xff,0xff,0xff,0xff,0xff,0xff,0xff,0xff,0xff,
 0xff,0xff,0xff,0xff,0xff,0xff,0xff,0xff,0xff,0xff,0xff,0xff,0xff,0xff,0xff,
 0xff,0xff,0xff,0xff,0xff,0xff,0xff,0xff,0xff,0xff,0xff,0xff,0xff,0xff,0xff,
 0xff,0xff,0xff,0xff,0x03};
